<svg xmlns="http://www.w3.org/2000/svg" width="41px" height="56px">
    <path fill-rule="evenodd"  opacity="0.322" fill="rgb(235, 244, 255)"
          d="M39.541,27.512 C38.884,27.465 38.391,26.895 38.438,26.239 C38.485,25.583 39.055,25.090 39.711,25.137 C40.367,25.184 40.861,25.754 40.814,26.410 C40.767,27.066 40.197,27.559 39.541,27.512 ZM37.957,24.613 C37.192,24.558 36.616,23.893 36.670,23.127 C36.725,22.362 37.391,21.786 38.156,21.841 C38.922,21.896 39.498,22.561 39.443,23.326 C39.388,24.092 38.723,24.668 37.957,24.613 ZM35.129,22.420 C34.255,22.357 33.596,21.597 33.659,20.722 C33.722,19.847 34.482,19.189 35.357,19.251 C36.232,19.314 36.890,20.074 36.827,20.949 C36.764,21.824 36.004,22.482 35.129,22.420 ZM31.569,20.571 C30.585,20.501 29.844,19.646 29.915,18.662 C29.985,17.677 30.840,16.937 31.825,17.007 C32.809,17.078 33.549,17.933 33.479,18.917 C33.408,19.901 32.553,20.642 31.569,20.571 ZM29.205,22.392 C29.135,22.387 29.033,22.380 28.979,22.376 C29.093,22.384 29.159,22.389 29.205,22.392 ZM26.718,21.020 C25.490,20.932 24.583,19.620 24.693,18.089 C24.803,16.558 25.887,15.388 27.116,15.476 C28.344,15.564 29.250,16.877 29.140,18.408 C29.031,19.939 27.946,21.108 26.718,21.020 ZM28.615,42.857 C30.841,40.928 31.235,38.108 31.344,36.597 C31.533,33.952 28.646,31.846 26.892,29.822 C25.490,28.202 25.221,26.664 25.329,25.153 C25.465,23.263 26.678,22.211 28.945,22.374 C31.967,22.591 34.531,23.913 36.986,26.748 C37.863,27.760 39.442,29.583 39.279,31.849 C39.225,32.605 39.171,33.361 38.712,34.467 C38.252,35.574 37.389,37.030 35.633,40.322 C33.878,43.614 33.781,46.769 33.537,50.169 C33.293,53.569 31.409,55.589 28.387,55.372 C25.364,55.155 23.786,52.924 23.976,50.279 C24.165,47.634 25.780,45.312 28.615,42.857 ZM14.929,6.063 C13.698,6.068 12.696,4.827 12.690,3.292 C12.685,1.757 13.679,0.510 14.910,0.505 C16.142,0.501 17.144,1.742 17.149,3.277 C17.155,4.812 16.161,6.059 14.929,6.063 ZM16.033,10.281 C16.038,11.796 15.666,13.313 14.156,14.833 C12.268,16.733 9.244,18.637 9.253,21.289 C9.258,22.804 9.459,25.644 11.549,27.720 C14.210,30.362 15.663,32.789 15.672,35.441 C15.681,38.093 13.955,40.211 10.924,40.222 C7.894,40.232 6.152,38.089 6.141,34.680 C6.129,31.271 6.247,28.117 4.720,24.713 C3.192,21.310 2.430,19.797 2.047,18.662 C1.665,17.528 1.662,16.770 1.659,16.012 C1.652,13.740 3.351,12.028 4.295,11.078 C6.937,8.417 9.585,7.273 12.615,7.262 C14.888,7.254 16.027,8.387 16.033,10.281 ZM12.615,7.262 C12.615,7.262 11.858,7.265 12.615,7.262 ZM10.120,5.285 C9.133,5.289 8.331,4.492 8.327,3.505 C8.324,2.518 9.121,1.716 10.108,1.712 C11.094,1.709 11.897,2.506 11.901,3.493 C11.904,4.479 11.107,5.282 10.120,5.285 ZM6.442,6.887 C5.565,6.890 4.851,6.181 4.848,5.304 C4.845,4.427 5.554,3.713 6.431,3.710 C7.308,3.707 8.022,4.416 8.025,5.293 C8.028,6.170 7.319,6.884 6.442,6.887 ZM3.471,8.882 C2.704,8.885 2.079,8.265 2.077,7.497 C2.074,6.730 2.694,6.105 3.462,6.103 C4.229,6.100 4.854,6.720 4.856,7.488 C4.859,8.255 4.239,8.880 3.471,8.882 ZM2.881,10.472 C2.883,11.130 2.352,11.665 1.694,11.667 C1.037,11.669 0.502,11.138 0.499,10.480 C0.497,9.823 1.028,9.288 1.686,9.285 C2.344,9.283 2.879,9.814 2.881,10.472 Z"/>
</svg>
